<svg id="SvgjsSvg1017" xmlns="http://www.w3.org/2000/svg" version="1.1" xmlns:xlink="http://www.w3.org/1999/xlink" xmlns:svgjs="http://svgjs.com/svgjs" width="20" height="19" viewBox="0 0 20 19"><title>favourite</title><desc>Created with Avocode.</desc><defs id="SvgjsDefs1018"></defs><path id="SvgjsPath1019" d="M299.335 594.302C301.055 593.487 304.04999999999995 592.067 304.04999999999995 592.067C304.04999999999995 592.067 306.99299999999994 593.448 308.86499999999995 594.327C308.2579999999999 594.042 310.4309999999999 595.568 310.22999999999996 593.451C310.03799999999995 591.4150000000001 309.729 588.145 309.729 588.145C309.729 588.145 311.876 585.754 313.217 584.261C312.657 584.884 314.757 583.182 312.80199999999996 582.813C310.825 582.441 307.282 582.179 307.282 582.179C307.282 582.179 305.873 578.924 304.83299999999997 577.124C305.31699999999995 577.962 304.284 575.273 303.246 577.085C302.214 578.885 300.702 582.193 300.702 582.193C300.702 582.193 297.266 582.461 295.288 582.84C296.063 582.692 293.478 582.76 294.791 584.215C296.131 585.698 298.361 588.168 298.361 588.168C298.361 588.168 298.063 591.452 297.877 593.487C297.925 592.961 297.201 595.313 299.33500000000004 594.302Z " fill="#bdc3c7" fill-opacity="1" transform="matrix(1,0,0,1,-294,-576)"></path><path id="SvgjsPath1020" d="M299.335 594.302C301.055 593.487 304.04999999999995 592.067 304.04999999999995 592.067C304.04999999999995 592.067 306.99299999999994 593.448 308.86499999999995 594.327C308.2579999999999 594.042 310.4309999999999 595.568 310.22999999999996 593.451C310.03799999999995 591.4150000000001 309.729 588.145 309.729 588.145C309.729 588.145 311.876 585.754 313.217 584.261C312.657 584.884 314.757 583.182 312.80199999999996 582.813C310.825 582.441 307.282 582.179 307.282 582.179C307.282 582.179 305.873 578.924 304.83299999999997 577.124C305.31699999999995 577.962 304.284 575.273 303.246 577.085C302.214 578.885 300.702 582.193 300.702 582.193C300.702 582.193 297.266 582.461 295.288 582.84C296.063 582.692 293.478 582.76 294.791 584.215C296.131 585.698 298.361 588.168 298.361 588.168C298.361 588.168 298.063 591.452 297.877 593.487C297.925 592.961 297.201 595.313 299.33500000000004 594.302Z " fill="#ffdd3f" fill-opacity="1" transform="matrix(1,0,0,1,-294,-576)"></path></svg>