<svg id="SvgjsSvg1021" xmlns="http://www.w3.org/2000/svg" version="1.1" xmlns:xlink="http://www.w3.org/1999/xlink" xmlns:svgjs="http://svgjs.com/svgjs" width="20" height="19" viewBox="0 0 20 19"><title>favourite copy 4</title><desc>Created with Avocode.</desc><defs id="SvgjsDefs1022"></defs><path id="SvgjsPath1023" d="M411.335 594.302C413.055 593.487 416.04999999999995 592.067 416.04999999999995 592.067C416.04999999999995 592.067 418.99299999999994 593.448 420.86499999999995 594.327C420.2579999999999 594.042 422.4309999999999 595.568 422.22999999999996 593.451C422.03799999999995 591.4150000000001 421.729 588.145 421.729 588.145C421.729 588.145 423.876 585.754 425.217 584.261C424.657 584.884 426.757 583.182 424.80199999999996 582.813C422.825 582.441 419.282 582.179 419.282 582.179C419.282 582.179 417.873 578.924 416.83299999999997 577.124C417.31699999999995 577.962 416.284 575.273 415.246 577.085C414.214 578.885 412.702 582.193 412.702 582.193C412.702 582.193 409.266 582.461 407.288 582.84C408.063 582.692 405.478 582.76 406.791 584.215C408.131 585.698 410.361 588.168 410.361 588.168C410.361 588.168 410.063 591.452 409.877 593.487C409.925 592.961 409.201 595.313 411.33500000000004 594.302Z " fill="#bdc3c7" fill-opacity="1" transform="matrix(1,0,0,1,-406,-576)"></path><path id="SvgjsPath1024" d="M411.335 594.302C413.055 593.487 416.04999999999995 592.067 416.04999999999995 592.067C416.04999999999995 592.067 418.99299999999994 593.448 420.86499999999995 594.327C420.2579999999999 594.042 422.4309999999999 595.568 422.22999999999996 593.451C422.03799999999995 591.4150000000001 421.729 588.145 421.729 588.145C421.729 588.145 423.876 585.754 425.217 584.261C424.657 584.884 426.757 583.182 424.80199999999996 582.813C422.825 582.441 419.282 582.179 419.282 582.179C419.282 582.179 417.873 578.924 416.83299999999997 577.124C417.31699999999995 577.962 416.284 575.273 415.246 577.085C414.214 578.885 412.702 582.193 412.702 582.193C412.702 582.193 409.266 582.461 407.288 582.84C408.063 582.692 405.478 582.76 406.791 584.215C408.131 585.698 410.361 588.168 410.361 588.168C410.361 588.168 410.063 591.452 409.877 593.487C409.925 592.961 409.201 595.313 411.33500000000004 594.302Z " fill="#4b536b" fill-opacity="1" transform="matrix(1,0,0,1,-406,-576)"></path></svg>