<svg id="SvgjsSvg1000" xmlns="http://www.w3.org/2000/svg" version="1.1" xmlns:xlink="http://www.w3.org/1999/xlink" xmlns:svgjs="http://svgjs.com/svgjs" width="132" height="19" viewBox="0 0 132 19"><title>stars</title><desc>Created with Avocode.</desc><defs id="SvgjsDefs1001"></defs><path id="SvgjsPath1007" d="M299.335 594.302C301.055 593.487 304.04999999999995 592.067 304.04999999999995 592.067C304.04999999999995 592.067 306.99299999999994 593.448 308.86499999999995 594.327C308.2579999999999 594.042 310.4309999999999 595.568 310.22999999999996 593.451C310.03799999999995 591.4150000000001 309.729 588.145 309.729 588.145C309.729 588.145 311.876 585.754 313.217 584.261C312.657 584.884 314.757 583.182 312.80199999999996 582.813C310.825 582.441 307.282 582.179 307.282 582.179C307.282 582.179 305.873 578.924 304.83299999999997 577.124C305.31699999999995 577.962 304.284 575.273 303.246 577.085C302.214 578.885 300.702 582.193 300.702 582.193C300.702 582.193 297.266 582.461 295.288 582.84C296.063 582.692 293.478 582.76 294.791 584.215C296.131 585.698 298.361 588.168 298.361 588.168C298.361 588.168 298.063 591.452 297.877 593.487C297.925 592.961 297.201 595.313 299.33500000000004 594.302Z " fill="#bdc3c7" fill-opacity="1" transform="matrix(1,0,0,1,-294,-576)"></path><path id="SvgjsPath1008" d="M299.335 594.302C301.055 593.487 304.04999999999995 592.067 304.04999999999995 592.067C304.04999999999995 592.067 306.99299999999994 593.448 308.86499999999995 594.327C308.2579999999999 594.042 310.4309999999999 595.568 310.22999999999996 593.451C310.03799999999995 591.4150000000001 309.729 588.145 309.729 588.145C309.729 588.145 311.876 585.754 313.217 584.261C312.657 584.884 314.757 583.182 312.80199999999996 582.813C310.825 582.441 307.282 582.179 307.282 582.179C307.282 582.179 305.873 578.924 304.83299999999997 577.124C305.31699999999995 577.962 304.284 575.273 303.246 577.085C302.214 578.885 300.702 582.193 300.702 582.193C300.702 582.193 297.266 582.461 295.288 582.84C296.063 582.692 293.478 582.76 294.791 584.215C296.131 585.698 298.361 588.168 298.361 588.168C298.361 588.168 298.063 591.452 297.877 593.487C297.925 592.961 297.201 595.313 299.33500000000004 594.302Z " fill="#ffdd3f" fill-opacity="1" transform="matrix(1,0,0,1,-294,-576)"></path><path id="SvgjsPath1009" d="M327.335 594.302C329.055 593.487 332.04999999999995 592.067 332.04999999999995 592.067C332.04999999999995 592.067 334.99299999999994 593.448 336.86499999999995 594.327C336.2579999999999 594.042 338.4309999999999 595.568 338.23099999999994 593.451C338.03799999999995 591.4150000000001 337.7289999999999 588.145 337.7289999999999 588.145C337.7289999999999 588.145 339.8759999999999 585.754 341.2169999999999 584.261C340.6569999999999 584.884 342.75699999999995 583.182 340.8019999999999 582.813C338.82499999999993 582.441 335.2819999999999 582.179 335.2819999999999 582.179C335.2819999999999 582.179 333.87299999999993 578.924 332.8329999999999 577.124C333.3169999999999 577.962 332.28399999999993 575.273 331.2459999999999 577.085C330.21399999999994 578.885 328.70199999999994 582.193 328.70199999999994 582.193C328.70199999999994 582.193 325.26599999999996 582.461 323.28799999999995 582.84C324.06299999999993 582.692 321.47799999999995 582.76 322.79099999999994 584.215C324.1309999999999 585.698 326.36099999999993 588.168 326.36099999999993 588.168C326.36099999999993 588.168 326.06299999999993 591.452 325.87699999999995 593.487C325.92499999999995 592.961 325.20099999999996 595.313 327.335 594.302Z " fill="#bdc3c7" fill-opacity="1" transform="matrix(1,0,0,1,-294,-576)"></path><path id="SvgjsPath1010" d="M327.335 594.302C329.055 593.487 332.04999999999995 592.067 332.04999999999995 592.067C332.04999999999995 592.067 334.99299999999994 593.448 336.86499999999995 594.327C336.2579999999999 594.042 338.4309999999999 595.568 338.23099999999994 593.451C338.03799999999995 591.4150000000001 337.7289999999999 588.145 337.7289999999999 588.145C337.7289999999999 588.145 339.8759999999999 585.754 341.2169999999999 584.261C340.6569999999999 584.884 342.75699999999995 583.182 340.8019999999999 582.813C338.82499999999993 582.441 335.2819999999999 582.179 335.2819999999999 582.179C335.2819999999999 582.179 333.87299999999993 578.924 332.8329999999999 577.124C333.3169999999999 577.962 332.28399999999993 575.273 331.2459999999999 577.085C330.21399999999994 578.885 328.70199999999994 582.193 328.70199999999994 582.193C328.70199999999994 582.193 325.26599999999996 582.461 323.28799999999995 582.84C324.06299999999993 582.692 321.47799999999995 582.76 322.79099999999994 584.215C324.1309999999999 585.698 326.36099999999993 588.168 326.36099999999993 588.168C326.36099999999993 588.168 326.06299999999993 591.452 325.87699999999995 593.487C325.92499999999995 592.961 325.20099999999996 595.313 327.335 594.302Z " fill="#ffdd3f" fill-opacity="1" transform="matrix(1,0,0,1,-294,-576)"></path><path id="SvgjsPath1011" d="M355.335 594.302C357.055 593.487 360.04999999999995 592.067 360.04999999999995 592.067C360.04999999999995 592.067 362.99299999999994 593.448 364.86499999999995 594.327C364.2579999999999 594.042 366.4309999999999 595.568 366.23099999999994 593.451C366.03799999999995 591.4150000000001 365.7289999999999 588.145 365.7289999999999 588.145C365.7289999999999 588.145 367.8759999999999 585.754 369.2169999999999 584.261C368.6569999999999 584.884 370.75699999999995 583.182 368.8019999999999 582.813C366.82499999999993 582.441 363.2819999999999 582.179 363.2819999999999 582.179C363.2819999999999 582.179 361.87299999999993 578.924 360.83199999999994 577.124C361.31699999999995 577.962 360.28399999999993 575.273 359.2459999999999 577.085C358.21399999999994 578.885 356.70199999999994 582.193 356.70199999999994 582.193C356.70199999999994 582.193 353.26599999999996 582.461 351.28799999999995 582.84C352.06299999999993 582.692 349.47799999999995 582.76 350.79099999999994 584.215C352.1309999999999 585.698 354.36099999999993 588.168 354.36099999999993 588.168C354.36099999999993 588.168 354.06299999999993 591.452 353.87699999999995 593.487C353.92499999999995 592.961 353.20099999999996 595.313 355.335 594.302Z " fill="#bdc3c7" fill-opacity="1" transform="matrix(1,0,0,1,-294,-576)"></path><path id="SvgjsPath1012" d="M355.335 594.302C357.055 593.487 360.04999999999995 592.067 360.04999999999995 592.067C360.04999999999995 592.067 362.99299999999994 593.448 364.86499999999995 594.327C364.2579999999999 594.042 366.4309999999999 595.568 366.23099999999994 593.451C366.03799999999995 591.4150000000001 365.7289999999999 588.145 365.7289999999999 588.145C365.7289999999999 588.145 367.8759999999999 585.754 369.2169999999999 584.261C368.6569999999999 584.884 370.75699999999995 583.182 368.8019999999999 582.813C366.82499999999993 582.441 363.2819999999999 582.179 363.2819999999999 582.179C363.2819999999999 582.179 361.87299999999993 578.924 360.83199999999994 577.124C361.31699999999995 577.962 360.28399999999993 575.273 359.2459999999999 577.085C358.21399999999994 578.885 356.70199999999994 582.193 356.70199999999994 582.193C356.70199999999994 582.193 353.26599999999996 582.461 351.28799999999995 582.84C352.06299999999993 582.692 349.47799999999995 582.76 350.79099999999994 584.215C352.1309999999999 585.698 354.36099999999993 588.168 354.36099999999993 588.168C354.36099999999993 588.168 354.06299999999993 591.452 353.87699999999995 593.487C353.92499999999995 592.961 353.20099999999996 595.313 355.335 594.302Z " fill="#ffdd3f" fill-opacity="1" transform="matrix(1,0,0,1,-294,-576)"></path><path id="SvgjsPath1013" d="M383.335 594.302C385.055 593.487 388.04999999999995 592.067 388.04999999999995 592.067C388.04999999999995 592.067 390.99299999999994 593.448 392.86499999999995 594.327C392.2579999999999 594.042 394.4309999999999 595.568 394.22999999999996 593.451C394.03799999999995 591.4150000000001 393.729 588.145 393.729 588.145C393.729 588.145 395.876 585.754 397.217 584.261C396.657 584.884 398.757 583.182 396.80199999999996 582.813C394.825 582.441 391.282 582.179 391.282 582.179C391.282 582.179 389.873 578.924 388.83299999999997 577.124C389.31699999999995 577.962 388.284 575.273 387.246 577.085C386.214 578.885 384.702 582.193 384.702 582.193C384.702 582.193 381.266 582.461 379.288 582.84C380.063 582.692 377.478 582.76 378.791 584.215C380.131 585.698 382.361 588.168 382.361 588.168C382.361 588.168 382.063 591.452 381.877 593.487C381.925 592.961 381.201 595.313 383.33500000000004 594.302Z " fill="#bdc3c7" fill-opacity="1" transform="matrix(1,0,0,1,-294,-576)"></path><path id="SvgjsPath1014" d="M383.335 594.302C385.055 593.487 388.04999999999995 592.067 388.04999999999995 592.067C388.04999999999995 592.067 390.99299999999994 593.448 392.86499999999995 594.327C392.2579999999999 594.042 394.4309999999999 595.568 394.22999999999996 593.451C394.03799999999995 591.4150000000001 393.729 588.145 393.729 588.145C393.729 588.145 395.876 585.754 397.217 584.261C396.657 584.884 398.757 583.182 396.80199999999996 582.813C394.825 582.441 391.282 582.179 391.282 582.179C391.282 582.179 389.873 578.924 388.83299999999997 577.124C389.31699999999995 577.962 388.284 575.273 387.246 577.085C386.214 578.885 384.702 582.193 384.702 582.193C384.702 582.193 381.266 582.461 379.288 582.84C380.063 582.692 377.478 582.76 378.791 584.215C380.131 585.698 382.361 588.168 382.361 588.168C382.361 588.168 382.063 591.452 381.877 593.487C381.925 592.961 381.201 595.313 383.33500000000004 594.302Z " fill="#ffdd3f" fill-opacity="1" transform="matrix(1,0,0,1,-294,-576)"></path><path id="SvgjsPath1015" d="M411.335 594.302C413.055 593.487 416.04999999999995 592.067 416.04999999999995 592.067C416.04999999999995 592.067 418.99299999999994 593.448 420.86499999999995 594.327C420.2579999999999 594.042 422.4309999999999 595.568 422.22999999999996 593.451C422.03799999999995 591.4150000000001 421.729 588.145 421.729 588.145C421.729 588.145 423.876 585.754 425.217 584.261C424.657 584.884 426.757 583.182 424.80199999999996 582.813C422.825 582.441 419.282 582.179 419.282 582.179C419.282 582.179 417.873 578.924 416.83299999999997 577.124C417.31699999999995 577.962 416.284 575.273 415.246 577.085C414.214 578.885 412.702 582.193 412.702 582.193C412.702 582.193 409.266 582.461 407.288 582.84C408.063 582.692 405.478 582.76 406.791 584.215C408.131 585.698 410.361 588.168 410.361 588.168C410.361 588.168 410.063 591.452 409.877 593.487C409.925 592.961 409.201 595.313 411.33500000000004 594.302Z " fill="#bdc3c7" fill-opacity="1" transform="matrix(1,0,0,1,-294,-576)"></path><path id="SvgjsPath1016" d="M411.335 594.302C413.055 593.487 416.04999999999995 592.067 416.04999999999995 592.067C416.04999999999995 592.067 418.99299999999994 593.448 420.86499999999995 594.327C420.2579999999999 594.042 422.4309999999999 595.568 422.22999999999996 593.451C422.03799999999995 591.4150000000001 421.729 588.145 421.729 588.145C421.729 588.145 423.876 585.754 425.217 584.261C424.657 584.884 426.757 583.182 424.80199999999996 582.813C422.825 582.441 419.282 582.179 419.282 582.179C419.282 582.179 417.873 578.924 416.83299999999997 577.124C417.31699999999995 577.962 416.284 575.273 415.246 577.085C414.214 578.885 412.702 582.193 412.702 582.193C412.702 582.193 409.266 582.461 407.288 582.84C408.063 582.692 405.478 582.76 406.791 584.215C408.131 585.698 410.361 588.168 410.361 588.168C410.361 588.168 410.063 591.452 409.877 593.487C409.925 592.961 409.201 595.313 411.33500000000004 594.302Z " fill="#4b536b" fill-opacity="1" transform="matrix(1,0,0,1,-294,-576)"></path></svg>